<svg width="34" height="34" viewBox="0 0 34 34" fill="none" xmlns="http://www.w3.org/2000/svg">
<path d="M16.9987 0.332031C19.2088 0.332031 21.3285 1.21 22.8913 2.77281C24.4541 4.33561 25.332 6.45523 25.332 8.66536C25.332 10.8755 24.4541 12.9951 22.8913 14.5579C21.3285 16.1207 19.2088 16.9987 16.9987 16.9987C14.7886 16.9987 12.6689 16.1207 11.1061 14.5579C9.54334 12.9951 8.66536 10.8755 8.66536 8.66536C8.66536 6.45523 9.54334 4.33561 11.1061 2.77281C12.6689 1.21 14.7886 0.332031 16.9987 0.332031ZM16.9987 21.1654C26.207 21.1654 33.6654 24.8945 33.6654 29.4987V33.6654H0.332031V29.4987C0.332031 24.8945 7.79036 21.1654 16.9987 21.1654Z" fill="#143C3C"/>
</svg>
