<svg width="118" height="44" viewBox="0 0 118 44" fill="none" xmlns="http://www.w3.org/2000/svg">
<path fill-rule="evenodd" clip-rule="evenodd" d="M102.088 0.617417C102.088 3.41133 99.6253 5.67624 96.5877 5.67624C93.5502 5.67624 91.0877 3.41133 91.0877 0.617417C91.0877 0.553253 91.089 0.489367 91.0916 0.425781H0V43.4258H92C92 42.6379 92.1423 41.8576 92.4187 41.1297C92.6951 40.4017 93.1002 39.7403 93.6109 39.1831C94.1216 38.626 94.728 38.184 95.3952 37.8825C96.0625 37.581 96.7777 37.4258 97.5 37.4258C98.2223 37.4258 98.9375 37.581 99.6048 37.8825C100.272 38.184 100.878 38.626 101.389 39.1831C101.9 39.7403 102.305 40.4017 102.581 41.1297C102.858 41.8576 103 42.6379 103 43.4258H118V0.425781H102.084C102.086 0.489367 102.088 0.553253 102.088 0.617417Z" fill="#143C3C"/>
</svg>
