<svg width="65" height="54" viewBox="0 0 65 54" fill="none" xmlns="http://www.w3.org/2000/svg">
<path d="M33.6204 0C40.081 0.157813 46.3437 1.51501 52.1991 5.17628C54.7949 6.80175 57.3326 8.85333 59.5211 11.331C66.4939 19.269 66.8781 30.742 60.2894 39.2797C57.7633 42.5465 54.7135 45.4502 51.5239 47.3282C38.8354 54.7454 25.8792 55.1715 13.0395 48.1015C9.90808 46.3813 6.90476 43.588 4.44855 40.416C-1.46497 32.8094 -1.4184 22.3148 4.2041 14.2979C9.78003 6.35988 17.009 2.95111 24.7268 1.1836C27.6603 0.520784 30.652 0.378752 33.6204 0ZM33.3875 1.30985C25.2041 1.54657 17.1952 3.44033 10.0012 9.45302C4.97239 13.6509 0.793347 19.0165 0.956318 27.712C1.11929 36.5969 5.63591 41.6312 10.9092 45.5291C16.6947 49.8059 23.0272 51.5418 29.5344 51.7312C39.7667 52.0468 49.5217 49.6323 57.8448 40.8263C61.6281 36.8178 64.2938 31.752 63.9795 24.824C63.6187 17.0754 59.9052 12.3726 55.4119 8.67973C48.7068 3.17205 41.2334 1.51501 33.3992 1.30985H33.3875Z" fill="#2B211F"/>
<path d="M32.2252 38.0727C30.4883 36.2998 29.3303 34.8173 27.9681 33.7933C26.6399 32.7998 25.1527 31.8216 23.6883 31.6841C21.8379 31.516 21.1908 30.6906 21.3157 28.2758C21.4292 26.1667 21.3384 24.0575 21.3384 21.3523C26.1744 23.0946 28.6606 18.1427 32.2252 15.0859V38.0574V38.0727Z" fill="#2B211F"/>
<path d="M39.8731 25.5884C40.8904 24.417 41.8152 23.3433 42.74 22.2695C42.8787 22.4322 43.0175 22.5786 43.1562 22.7413C42.3817 24.0591 41.5956 25.3769 40.7517 26.8086C41.5956 28.289 42.3701 29.6719 43.1562 31.0385C43.0175 31.2174 42.8787 31.3801 42.74 31.5591C41.873 30.4528 40.9944 29.3465 39.8962 27.9474C38.9252 29.2001 37.9772 30.404 37.0408 31.6079C36.9021 31.4452 36.7634 31.2988 36.6131 31.1361C37.353 29.7695 38.0928 28.4029 38.983 26.7435C38.2084 25.5396 37.4108 24.2706 36.6016 23.0179C36.694 22.8064 36.7865 22.5949 36.8906 22.3834C37.353 22.8389 37.8385 23.2619 38.2893 23.75C38.8096 24.3194 39.2951 24.9214 39.8731 25.6047V25.5884Z" fill="#2B211F"/>
</svg>
