<svg width="130" height="50" viewBox="0 0 130 50" fill="none" xmlns="http://www.w3.org/2000/svg">
<path fill-rule="evenodd" clip-rule="evenodd" d="M0 0H92.0004C92.0001 0.0195813 92 0.0391894 92 0.0588236C92 2.69771 94.1967 4.86467 97 5.09702V37.0248C96.4491 37.0797 95.908 37.225 95.3952 37.4567C94.728 37.7583 94.1216 38.2002 93.6109 38.7574C93.1002 39.3145 92.6951 39.9759 92.4187 40.7039C92.1423 41.4319 92 42.2121 92 43H0V0Z" fill="#143C3C"/>
<path fill-rule="evenodd" clip-rule="evenodd" d="M114.915 3.68847C114.086 6.22208 111.378 7.63401 108.743 6.97669L98.8569 37.189C99.0123 37.2224 99.1659 37.2639 99.3172 37.3134C99.971 37.5274 100.57 37.8867 101.08 38.3709C101.591 38.8551 102.002 39.4547 102.291 40.1355C102.58 40.8163 102.741 41.5649 102.765 42.3387C102.789 43.1124 102.675 43.896 102.43 44.6449L116.007 49.0875L129.379 8.2197L114.971 3.50519C114.954 3.56638 114.935 3.62748 114.915 3.68847Z" fill="#143C3C"/>
</svg>
