<svg width="119" height="44" viewBox="0 0 119 44" fill="none" xmlns="http://www.w3.org/2000/svg">
<path fill-rule="evenodd" clip-rule="evenodd" d="M104.868 1.98017C104.87 4.1768 103.07 6.04541 100.56 6.7296L100.582 37.2206C103.524 37.6768 105.742 39.7067 105.744 42.1433C105.744 42.6942 105.631 43.2244 105.422 43.7205L118.092 43.7113L118.061 1.01365L104.751 1.02326C104.828 1.33301 104.868 1.65292 104.868 1.98017Z" fill="#143C3C"/>
<path fill-rule="evenodd" clip-rule="evenodd" d="M96.5 5.11765C97.02 5.11765 97.5232 5.05127 98 4.92722V38.0206C97.8353 38.007 97.6685 38 97.5 38C94.4838 38 92.0346 40.2332 92.0004 43H0V0H91.0004C91.0001 0.0195813 91 0.0391894 91 0.0588236C91 2.85273 93.4624 5.11765 96.5 5.11765Z" fill="#143C3C"/>
</svg>
