<svg width="159" height="43" viewBox="0 0 159 43" fill="none" xmlns="http://www.w3.org/2000/svg">
<path d="M5.40442 34.8291C4.46346 32.8155 3.02544 31.2911 0.868115 30.5775C0.787683 29.9977 0.714855 29.019 0.656079 27.7621C0.586658 26.2776 0.538129 24.4406 0.515133 22.4945C0.470762 18.7396 0.521666 14.5979 0.698413 11.813C2.34848 11.1142 4.26826 10.1482 5.23451 7.57942C5.85059 5.97398 6.30499 4.22147 6.77489 2.40919C6.93834 1.7788 7.10366 1.14118 7.27832 0.5H152.151C152.29 3.41486 152.726 6.05227 153.694 8.15306C154.674 10.2792 156.205 11.8615 158.5 12.6095V30.7204C158.08 31.1166 157.658 31.4745 157.23 31.838C156.919 32.102 156.605 32.369 156.285 32.6558C155.497 33.3625 154.737 34.1392 154.146 35.1315L154.146 35.1326C153.578 36.091 153.19 37.2498 152.848 38.462C152.71 38.9479 152.582 39.4364 152.452 39.9288C152.281 40.5799 152.108 41.2378 151.91 41.9058H6.99058C6.77717 39.2448 6.32374 36.7964 5.40442 34.8291Z" stroke="#32211C"/>
</svg>
